<svg version="1.0" xmlns="http://www.w3.org/2000/svg" width="800.000000" height="800.000000" viewBox="0 0 800.000000 800.000000" preserveAspectRatio="xMidYMid meet">
  <metadata>
    <rdf:RDF xmlns:rdf="http://www.w3.org/1999/02/22-rdf-syntax-ns#" xmlns:rdfs="http://www.w3.org/2000/01/rdf-schema#" xmlns:dc="http://purl.org/dc/elements/1.1/">
      <rdf:Description dc:format="image/svg+xml" dc:Label="1" dc:ContentProducer="001191330110MACRLGPT8B00000" dc:ProduceID="329758241" dc:ReservedCode1="XHPp4KkT6gvu//EZwVOtwgjH4WEcI/geJLrOVdQhPGg=" dc:ContentPropagator="001191330110MACRLGPT8B00000" dc:PropagateID="329758241" dc:ReservedCode2="XHPp4KkT6gvu//EZwVOtwgjH4WEcI/geJLrOVdQhPGg="/>
    </rdf:RDF>
  </metadata>
  <g transform="translate(0.000000,800.000000) scale(0.100000,-0.100000)" fill="#000000" stroke="none">
    <path d="M3435 6014 c-166 -36 -315 -88 -470 -164 -266 -130 -443 -274 -587 -475 -71 -99 -153 -272 -185 -390 -23 -89 -27 -119 -27 -265 -1 -144 2 -176 23 -250 83 -299 283 -528 587 -675 l91 -44 -40 -82 c-59 -123 -89 -253 -85 -366 l3 -92 40 -42 c22 -23 146 -129 275 -237 129 -107 239 -199 244 -203 14 -13 -108 -64 -308 -131 -99 -33 -197 -68 -218 -79 -151 -77 -216 -243 -173 -443 18 -83 44 -116 92 -116 67 0 97 58 73 140 -20 67 -16 152 10 199 32 56 62 73 231 127 162 51 355 131 441 181 l56 33 497 0 c481 0 498 -1 525 -20 63 -45 312 -146 530 -216 98 -31 135 -55 159 -103 30 -57 34 -106 18 -191 -16 -81 -14 -94 16 -127 27 -30 77 -30 105 0 51 54 65 249 27 359 -35 101 -141 183 -295 228 -100 29 -362 129 -378 144 -10 10 33 50 210 199 351 293 338 279 338 392 0 139 -29 257 -98 394 -22 45 -24 55 -12 59 40 13 226 115 282 155 168 120 300 300 362 493 40 125 47 168 47 303 0 325 -111 581 -360 832 -230 231 -525 385 -904 470 -144 32 -176 31 -207 -8 -26 -33 -25 -66 3 -98 18 -21 41 -30 122 -46 259 -53 451 -129 650 -257 81 -52 181 -131 189 -149 4 -10 -89 -13 -448 -13 -443 0 -454 0 -480 -21 -44 -35 -36 -79 29 -164 227 -297 720 -608 1120 -706 50 -12 94 -25 98 -29 13 -11 -46 -151 -99 -237 -89 -142 -238 -265 -428 -353 l-88 -40 -67 62 c-175 165 -419 280 -686 325 -146 24 -430 24 -565 0 -277 -50 -501 -154 -666 -310 l-82 -77 -95 44 c-191 88 -325 196 -417 333 -44 66 -110 213 -110 246 0 9 28 20 83 31 365 78 880 393 1116 684 87 107 97 146 51 192 -19 19 -35 20 -475 20 -257 0 -455 4 -455 9 0 28 177 154 332 235 161 85 345 145 585 192 36 7 63 43 63 85 0 30 -6 42 -29 58 -36 26 -48 25 -186 -5z m-456 -740 l383 -6 -28 -30 c-145 -153 -467 -361 -713 -458 -103 -41 -260 -90 -287 -90 -12 0 -13 15 -8 83 12 151 70 329 146 451 l43 67 40 -6 c22 -3 213 -9 424 -11z m2546 -39 c82 -128 142 -307 152 -459 l6 -88 -34 7 c-143 29 -416 144 -589 247 -110 66 -291 202 -358 270 l-54 53 385 5 c212 3 389 8 393 13 4 4 20 7 36 7 23 0 34 -9 63 -55z m-1220 -1129 c393 -88 671 -313 765 -619 27 -89 36 -192 19 -213 -12 -15 -253 -217 -490 -412 l-76 -62 -521 0 -520 0 -112 90 c-313 254 -454 379 -463 409 -10 35 9 138 45 236 55 153 165 289 317 390 153 101 320 164 514 194 93 15 438 6 522 -13z"/>
    <path d="M3607 4709 c-84 -63 -71 -185 26 -232 118 -58 239 84 164 194 -12 18 -34 39 -47 46 -39 20 -111 16 -143 -8z"/>
    <path d="M4244 4711 c-70 -42 -78 -157 -15 -213 90 -81 221 -19 221 105 0 44 -4 53 -39 88 -34 35 -44 39 -87 39 -30 0 -61 -7 -80 -19z"/>
    <path d="M1738 3946 c-27 -20 -39 -62 -27 -92 25 -66 223 -221 366 -285 112 -51 324 -108 404 -109 38 0 71 26 83 67 9 30 -19 81 -47 88 -12 2 -66 14 -119 24 -201 41 -359 119 -496 245 -68 63 -88 76 -115 76 -17 0 -40 -6 -49 -14z"/>
    <path d="M6148 3924 c-48 -53 -181 -150 -257 -188 -88 -45 -204 -82 -326 -106 -110 -21 -125 -32 -125 -90 0 -48 36 -84 84 -82 101 4 311 64 431 124 172 87 345 235 345 296 0 47 -34 82 -80 82 -33 0 -45 -6 -72 -36z"/>
    <path d="M2095 3219 c-248 -29 -466 -161 -589 -357 -52 -82 -14 -163 68 -148 29 6 42 17 72 61 49 75 151 165 234 209 157 83 375 97 637 41 27 -6 37 -3 63 23 38 39 40 83 5 116 -46 43 -328 74 -490 55z"/>
    <path d="M5690 3224 c-187 -17 -282 -45 -295 -84 -13 -40 3 -89 36 -105 26 -14 37 -14 117 2 60 12 134 17 237 18 138 0 157 -3 238 -29 136 -44 264 -138 329 -242 32 -49 47 -62 85 -70 23 -4 36 0 61 21 42 35 41 62 -4 133 -155 246 -472 386 -804 356z"/>
    <path d="M2632 2850 c-222 -29 -333 -63 -466 -142 -132 -77 -286 -258 -286 -334 0 -13 11 -35 23 -50 42 -49 108 -30 144 41 64 124 239 242 429 290 50 13 147 30 214 37 101 10 126 16 146 35 36 33 33 84 -7 117 -17 14 -38 25 -47 25 -9 -1 -77 -10 -150 -19z"/>
    <path d="M5185 2858 c-68 -37 -57 -137 17 -152 13 -3 70 -10 128 -16 187 -21 315 -60 435 -135 82 -51 139 -107 190 -188 41 -66 73 -84 117 -66 143 59 -50 327 -327 455 -101 47 -195 70 -375 94 -180 23 -160 22 -185 8z"/>
  </g>
</svg>